# xmcd
#
# Track frame offsets:
#	150
#	11332
#	25376
#	49472
#	68622
#	80530
#	92330
#	105317
#	121346
#	132410
#	152304
#	163035
#	178646
#
# Disc length: 2488 seconds
#
# Revision: 1
# Processed by: cddbd v1.5.1PL0 Copyright (c) Steve Scherf et al.
# Submitted via: EasyCDDAExtractor 6.0.0.1
#
DISCID=9609b60d
DTITLE=Various Artist - The Very Best of Blues - CD2 Sunset
DYEAR=2003
DGENRE=Blues
TTITLE0=Howlin' Wolf - Little Red Rooster
TTITLE1=Etta James - I Just Want to Make Love to You
TTITLE2=Otis Spann and Fleetwood Mac - My Love Depends on You
TTITLE3=Eric Clapton and The Yardbirds - Take it easy Baby
TTITLE4=Ray Charles -  C C Rider
TTITLE5=Erma Franklin - (Take a Little) Piece of my Heart
TTITLE6=Fleetwood Mac - Looking for Somebody
TTITLE7=Sonny Terry and Brownie McGhee - Bring it on Home to Me
TTITLE8=T-Bone Walker - Stormy Monday Blues
TTITLE9=Kelly Joe Phelps - Train Carried my Girl from Town
TTITLE10=Memphis Slim - What's the Matter
TTITLE11=Peter Green with Nigel Watson - Phonograph Blues
TTITLE12=Janis Joplin - Mercedes Benz
EXTD=YEAR: 2003
EXTT0=
EXTT1=
EXTT2=
EXTT3=
EXTT4=
EXTT5=
EXTT6=
EXTT7=
EXTT8=
EXTT9=
EXTT10=
EXTT11=
EXTT12=
PLAYORDER=
